<?xml version="1.0" encoding="UTF-8" standalone="no"?>
<svg width="15px" height="15px" viewBox="0 0 15 15" version="1.1" xmlns="http://www.w3.org/2000/svg" xmlns:xlink="http://www.w3.org/1999/xlink">
    <!-- Generator: Sketch 3.8.3 (29802) - http://www.bohemiancoding.com/sketch -->
    <title>pinterest</title>
    <desc>Created with Sketch.</desc>
    <defs></defs>
    <g id="Page-1" stroke="none" stroke-width="1" fill="none" fill-rule="evenodd">
        <g id="pinterest" fill="#CC2127">
            <g id="Icons">
                <g id="Color-">
                    <path d="M0,7.50044094 C0,10.5706475 1.84688656,13.2095606 4.49021,14.3693772 C4.46904219,13.8463575 4.48668187,13.2166166 4.6198625,12.6468512 C4.76450875,12.0382784 5.58475906,8.56059281 5.58475906,8.56059281 C5.58475906,8.56059281 5.34574,8.08167219 5.34574,7.37343437 C5.34574,6.2621275 5.99047437,5.432175 6.79220313,5.432175 C7.47398125,5.432175 7.80384563,5.94461094 7.80384563,6.55847594 C7.80384563,7.24378187 7.36637844,8.26953594 7.14147125,9.21943906 C6.95360719,10.0158759 7.54013063,10.6641384 8.32510156,10.6641384 C9.74598688,10.6641384 10.7029459,8.83930156 10.7029459,6.6766625 C10.7029459,5.03351563 9.59604875,3.80314 7.58246594,3.80314 C5.30781437,3.80314 3.89045687,5.49920625 3.89045687,7.39372031 C3.89045687,8.04815656 4.08273062,8.50855531 4.38437125,8.86487906 C4.52372563,9.02981125 4.54224719,9.09507844 4.49197375,9.28382437 C4.45669437,9.42053281 4.37378719,9.753925 4.33938969,9.88534125 C4.28911625,10.0749691 4.13565,10.1437644 3.96454406,10.073205 C2.91585812,9.64544 2.42811781,8.49797156 2.42811781,7.20762031 C2.42811781,5.077615 4.22473094,2.52160875 7.78796969,2.52160875 C10.6517903,2.52160875 12.5366025,4.59516656 12.5366025,6.81866281 C12.5366025,9.76098063 10.9013934,11.9588994 8.48915156,11.9588994 C7.68036688,11.9588994 6.91832781,11.5214325 6.65725875,11.0248722 C6.65725875,11.0248722 6.22155594,12.75269 6.12982875,13.0860822 C5.97107062,13.6637856 5.65972844,14.2423709 5.37484562,14.6921856 C6.04956781,14.8915153 6.76221563,15 7.50044094,15 C11.642265,15 15,11.642265 15,7.50044094 C15,3.357735 11.642265,0 7.50044094,0 C3.35861719,0 0,3.357735 0,7.50044094 Z" id="Pinterest"></path>
                </g>
            </g>
        </g>
    </g>
</svg>