<?xml version="1.0" encoding="UTF-8" standalone="no"?>
<svg width="15px" height="15px" viewBox="0 0 15 15" version="1.1" xmlns="http://www.w3.org/2000/svg" xmlns:xlink="http://www.w3.org/1999/xlink">
    <!-- Generator: Sketch 3.8.3 (29802) - http://www.bohemiancoding.com/sketch -->
    <title>rss</title>
    <desc>Created with Sketch.</desc>
    <defs></defs>
    <g id="Page-1" stroke="none" stroke-width="1" fill="none" fill-rule="evenodd">
        <g id="rss" fill="#BCBEC0">
            <g id="Icons">
                <g id="Black">
                    <path d="M0.000160568182,12.857143 C0.000160568182,11.67375 0.959614773,10.7142856 2.14299477,10.7142856 C3.32637511,10.7142856 4.28582898,11.67375 4.28582898,12.857143 C4.28582898,14.0405356 3.32637511,15 2.14299477,15 C0.959614773,15 0.000160568182,14.0405356 0.000160568182,12.857143 L0.000160568182,12.857143 Z M15,15 L12.1430662,15 C12.1430662,8.30410705 6.69598193,2.85696443 0.000160568182,2.85696443 L0.000160568182,0 C8.27096489,0 15,6.72910705 15,15 L15,15 Z M10.0000715,15 L7.14313773,15 C7.14313773,11.0614285 3.9385292,7.85732148 0,7.85732148 L0,4.99982148 C5.51404807,4.99982148 10.0000715,9.48589295 10.0000715,15 L10.0000715,15 Z" id="RSS"></path>
                </g>
            </g>
        </g>
    </g>
</svg>