<?xml version="1.0" encoding="UTF-8" standalone="no"?>
<svg width="15px" height="15px" viewBox="0 0 15 15" version="1.1" xmlns="http://www.w3.org/2000/svg" xmlns:xlink="http://www.w3.org/1999/xlink">
    <!-- Generator: Sketch 3.8.3 (29802) - http://www.bohemiancoding.com/sketch -->
    <title>telegram</title>
    <desc>Created with Sketch.</desc>
    <defs></defs>
    <g id="Page-1" stroke="none" stroke-width="1" fill="none" fill-rule="evenodd">
        <g id="telegram">
            <g id="Page-1">
                <g id="telegram">
                    <rect id="rect4166" fill="#1FB1F8" x="2.13162821e-14" y="0" width="14.9999959" height="14.9999884" rx="7.49999419"></rect>
                    <path d="M7.59339,11.5627742 C7.3949775,11.4423317 7.26845625,11.2338429 6.71739,10.1192679 C6.41239875,9.5023854 6.12208125,8.9544804 6.07224375,8.9016954 C6.01629,8.8424304 5.556405,8.59811415 4.8696525,8.2628154 C3.5127225,7.6003029 3.375,7.4949954 3.375,7.1199879 C3.375,6.9448479 3.46044,6.77743665 3.59442,6.69004665 C3.640455,6.66004665 5.05912875,6.1524504 6.7470225,5.56212165 C9.712695,4.5248904 9.82297125,4.4892204 10.02555,4.5015654 C10.2008738,4.5122529 10.2516638,4.5300654 10.3358888,4.61038665 C10.4621663,4.7308179 10.5189675,4.8977604 10.49439,5.0762304 C10.4679525,5.2680654 8.33874,11.2823942 8.259555,11.3888567 C8.090685,11.6158892 7.80413625,11.6906979 7.59339,11.5627742 L7.59339,11.5627742 L7.59339,11.5627742 Z" id="path4193" fill="#FFFFFF"></path>
                </g>
            </g>
        </g>
    </g>
</svg>